PathFileType	4	(X/Y/Z)	E:\Qualisys_Data\Carbon_Farble_Plate\Data\Amateur_Runner\S14\T2\S14T2V25_c3d.trc
DataRate	CameraRate	NumFrames	NumMarkers	Units	OrigDataRate	OrigDataStartFrame	OrigNumFrames
200.000000	200.000000	4	39	mm	200.000000	237	317
Frame#	Time	LSHO			RSHO			LICST			RICST			LASIS			LHEEL			RASIS			LTROC			RTROC			SACR			LTH1			LSK4			LTH2			LTH3			RHM5			LSK2			LTH4			RTH1			LTOE			RTH2			RTH3			RTH4			LLEP			RLEP			LSK1			LSK3			RSK1			LHM5			RSK2			LFT1			RSK3			RSK4			LLME			RLME			RTOE			RHEEL			RFT1			RFT2			LFT2			
		X1	Y1	Z1	X2	Y2	Z2	X3	Y3	Z3	X4	Y4	Z4	X5	Y5	Z5	X6	Y6	Z6	X7	Y7	Z7	X8	Y8	Z8	X9	Y9	Z9	X10	Y10	Z10	X11	Y11	Z11	X12	Y12	Z12	X13	Y13	Z13	X14	Y14	Z14	X15	Y15	Z15	X16	Y16	Z16	X17	Y17	Z17	X18	Y18	Z18	X19	Y19	Z19	X20	Y20	Z20	X21	Y21	Z21	X22	Y22	Z22	X23	Y23	Z23	X24	Y24	Z24	X25	Y25	Z25	X26	Y26	Z26	X27	Y27	Z27	X28	Y28	Z28	X29	Y29	Z29	X30	Y30	Z30	X31	Y31	Z31	X32	Y32	Z32	X33	Y33	Z33	X34	Y34	Z34	X35	Y35	Z35	X36	Y36	Z36	X37	Y37	Z37	X38	Y38	Z38	X39	Y39	Z39	

238	1.185	1553.497924804688	1449.748046875	-494.5733947753906	1660.322509765625	1422.893798828125	-242.5541229248047	1627.118896484375	970.26806640625	-500.9107360839844	1648.704833984375	980.1678466796876	-227.9703216552734	1669.759643554688	920.2412719726562	-473.2626647949219	1857.509399414062	72.10309600830078	-401.0999145507812	1670.47314453125	934.757080078125	-243.2449645996094	1554.055541992188	846.3601684570312	-528.2991943359375	1505.751342773438	876.0617065429688	-198.0787811279297	1497.309692382812	967.9507446289062	-373.2962341308594	1700.87158203125	644.7803344726562	-537.9690551757812	1778.0439453125	278.8525085449219	-476.947998046875	1642.427978515625	613.2078247070312	-497.7478942871094	1761.559814453125	567.5753784179688	-512.922607421875	970.65087890625	310.0191345214844	-190.0050048828125	1745.87841796875	372.3133850097656	-492.2637939453125	1695.889526367188	533.2700805664062	-482.9332580566406	1544.34716796875	637.2127685546875	-180.4085693359375	2087.822265625	169.7061157226562	-484.1084594726562	1474.059326171875	670.4234619140625	-176.8604736328125	1506.00830078125	545.0489501953125	-196.0367736816406	1429.77783203125	579.87353515625	-190.0731811523438	1758.940307617188	480.1148071289062	-502.7343444824219	1416.244995117188	507.9266052246094	-186.8303680419922	1823.450439453125	396.1010437011719	-508.2384643554688	1853.6943359375	299.3584899902344	-498.6001586914062	1309.278930664062	448.2725524902344	-187.2323150634766	2031.5732421875	104.3136901855469	-522.7444458007812	1283.947021484375	529.412841796875	-198.2757415771484	1885.513549804688	59.62991333007812	-379.8861694335938	1210.915649414062	421.7318115234375	-206.6556396484375	1194.612670898438	498.7533874511719	-217.7707214355469	1886.267211914062	116.2564697265625	-472.7973022460938	1039.437377929688	425.5968322753906	-241.7483825683594	987.1554565429688	218.3641204833984	-224.40185546875	1025.391357421875	461.882080078125	-313.3597717285156	994.9951171875	440.6559448242188	-339.8456420898438	992.3694458007812	470.3424377441406	-290.2452697753906	1872.669311523438	39.74422073364258	-428.5780334472656
239	1.19	1574.996337890625	1445.00830078125	-495.5524597167969	1680.331787109375	1418.548583984375	-242.2437133789062	1647.720703125	965.7280883789062	-500.5471801757812	1671.26904296875	975.9406127929688	-228.1581726074219	1691.27734375	916.3360595703124	-473.7525939941406	1870.264770507812	66.37531280517578	-400.334716796875	1693.122192382812	930.5999755859376	-243.986328125	1575.057495117188	842.2589111328125	-527.6165161132812	1529.074951171875	871.5094604492188	-197.0306854248047	1519.4658203125	964.0181884765624	-372.8373718261719	1724.903076171875	641.4807739257812	-535.7352905273438	1795.826049804688	274.2999572753906	-476.5875244140625	1664.486450195312	609.5661010742188	-497.7021179199219	1783.667724609375	563.7804565429688	-511.75634765625	996.1346435546876	311.3771057128906	-189.4560241699219	1764.879516601562	368.3673706054688	-492.6253662109375	1717.647216796875	529.2896728515625	-482.9588928222656	1569.999267578125	632.3349609375	-180.1633758544922	2103.061767578125	159.8860931396484	-480.2099914550781	1498.986694335938	664.5089111328125	-175.8446044921875	1532.73974609375	539.657470703125	-195.1107940673828	1455.670043945312	573.669189453125	-188.6058654785156	1780.182495117188	475.8830261230469	-502.5246276855469	1443.741943359375	501.6263122558594	-185.3655853271484	1843.083618164062	390.897705078125	-508.0272216796875	1871.735595703125	293.5427856445312	-497.6073303222656	1336.044189453125	443.5296020507812	-186.4694976806641	2046.496337890625	96.07320404052734	-519.2018432617188	1311.8076171875	525.6705932617188	-196.7526702880859	1897.782470703125	53.23689651489258	-378.8274230957031	1236.763427734375	418.6312255859375	-206.6845092773438	1221.98046875	496.2274780273438	-216.8945007324219	1900.768798828125	110.0082626342773	-471.8858642578125	1065.445190429688	425.919921875	-241.9243927001953	1011.992736816406	219.4654083251953	-224.6605377197266	1051.53369140625	462.669189453125	-313.566162109375	1021.238708496094	441.5574340820312	-338.9176940917969	1018.830505371094	471.0529174804688	-290.7374267578125	1885.452270507812	33.54494476318359	-427.4057312011719
240	1.195	1596.95703125	1440.077392578125	-496.8993225097656	1700.495849609375	1413.89892578125	-242.2158355712891	1669.14013671875	961.56591796875	-501.4624328613281	1693.176147460938	972.2034301757812	-228.5425567626953	1712.8193359375	912.526123046875	-474.605224609375	1881.308837890625	62.37131881713867	-399.4258422851562	1715.386108398438	926.48779296875	-244.5258941650391	1595.6142578125	838.0936279296875	-527.017333984375	1552.356567382812	865.873046875	-196.3493957519531	1541.385864257812	959.1822509765624	-372.1273498535156	1747.510620117188	638.2456665039062	-534.3712158203125	1812.68017578125	269.3721313476562	-476.0281066894531	1686.490234375	605.248046875	-497.7460632324219	1805.916015625	560.5341186523438	-510.5261840820312	1022.099487304688	311.5979309082031	-190.4935760498047	1784.70263671875	364.5571594238281	-492.4518432617188	1739.68798828125	524.9970092773438	-483.1915588378906	1595.6376953125	626.9498901367188	-179.9400024414062	2118.232421875	148.3515625	-475.0990600585938	1524.203125	658.8842163085938	-174.8486175537109	1559.344360351562	533.9507446289062	-194.4462738037109	1482.245849609375	567.2235107421875	-187.2168731689453	1801.419555664062	471.7965698242188	-502.4977111816406	1470.87158203125	495.3587646484375	-183.9723052978516	1862.95263671875	385.582763671875	-507.2208862304688	1889.277099609375	287.3794555664062	-496.3077392578125	1362.72802734375	438.7369079589844	-185.6907348632812	2059.73388671875	85.22686767578125	-514.4467163085938	1339.789916992188	521.0845336914062	-195.3782196044922	1907.5458984375	49.08890151977539	-377.367919921875	1263.092651367188	415.67578125	-206.0779113769531	1249.545288085938	493.5610046386719	-215.5464019775391	1914.173950195312	104.2437362670898	-470.4887390136719	1092.231201171875	425.9578247070312	-241.6849212646484	1037.577392578125	219.9190979003906	-225.4771270751953	1078.249389648438	463.1395568847656	-313.6285400390625	1047.962280273438	442.1496887207031	-339.0597839355469	1045.653442382812	471.5602111816406	-290.5169067382812	1895.43359375	29.89512634277344	-426.4067687988281
241	1.2	1618.611450195312	1434.618774414062	-498.1138610839844	1720.898315429688	1409.122802734375	-241.9287109375	1689.909545898438	957.35205078125	-502.1107788085938	1715.532104492188	967.0603637695312	-228.714111328125	1734.265014648438	908.4901123046876	-475.7210693359375	1891.692016601562	64.74322509765625	-398.8567504882812	1737.384033203125	921.95703125	-245.1178436279297	1616.252319335938	833.8353881835938	-526.489501953125	1575.949462890625	860.2745971679688	-195.5066375732422	1563.339599609375	954.406982421875	-371.4996948242188	1770.255004882812	634.42724609375	-533.12353515625	1829.365600585938	264.80712890625	-476.0692443847656	1708.98681640625	601.21630859375	-498.5083618164062	1828.289184570312	556.565185546875	-509.3643798828125	1048.655395507812	311.8661193847656	-190.4336395263672	1803.642578125	359.4965515136719	-491.8368530273438	1761.714233398438	520.8143920898438	-483.9867858886719	1621.630859375	621.67236328125	-179.6929168701172	2133.60400390625	133.4867553710938	-469.2515869140625	1550.35888671875	652.5377807617188	-173.4377899169922	1586.320556640625	528.0194091796875	-193.9264373779297	1508.901489257812	560.22021484375	-185.8994903564453	1821.843139648438	466.826904296875	-502.1278686523438	1498.491821289062	488.5734252929688	-182.3792877197266	1882.072998046875	379.3974609375	-506.7341003417969	1906.510498046875	280.8845520019531	-495.3308410644531	1390.027099609375	433.5605773925781	-184.7263031005859	2071.43115234375	73.97588348388672	-509.8788452148438	1368.09228515625	516.3729248046875	-193.5872497558594	1914.276000976562	46.87419891357422	-375.4793701171875	1289.926879882812	412.2683410644531	-205.5864715576172	1277.506958007812	490.1205139160156	-214.4354553222656	1926.731567382812	98.18132019042967	-468.8629760742188	1119.275268554688	425.377685546875	-241.5765838623047	1062.967163085938	220.0196380615234	-226.4785766601562	1106.116455078125	463.492919921875	-313.3305053710938	1075.158935546875	442.6857604980469	-338.8996276855469	1075.142822265625	472.8469848632812	-289.43408203125	1900.838500976562	29.7353687286377	-425.8569946289062
